Release Brought to you by CrEwSaDe

**Naked.Weapon.2002.BRRIP.X264.AC3.CrEwSaDe**

******************************************************************

Also Known As: Chek law dak gung
Directed by: Siu-Tung Ching
Country: Hong Kong
Language: Cantonese
Subtitle: English
Year: 2002
Genre: Action, Drama, Romance, Thriller

PLOT:

Like a contagious virus, pretty and athletic girls in their teens start disappearing around the globe one after another. The mastermind behind these abductions is Madame M. (Almen Wong), who plans to train these girls into professional killers. After several years of gruesome training, only Charlene (Maggie Q), Katt (Anya), and Jill (Jewel Lee) survive and become the worldâ™s most sought-after professional killers. On a recent mission to assassinate someone in Hong Kong, however, Charlene is shocked to see her long-lost mother and as a result she comes face to face with CIA agent Jack (Daniel Wu), who vows to help her reclaim her past by eliminating Madame M.



Encoder...........XtC42
Video Codec.......: AVC
Video Bitrate.....: 936 Kbp
Audio Codec.......: AC3
Audio Bitrate.....: 128 Kbps
Resolution........: 720X400
Runtime...........: 1h 31mn
Release Date......: 2002
Theatre Date......:
Language..........: English
Subtitles.........: n/a
IMDB Rating.......: 5.6/10
IMDB URL..........: http://www.imdb.com/title/tt0341495/

General
Format : Matroska
Format version : Version 2
File size : 698 MiB
Duration : 1h 31mn
Overall bit rate : 1 065 Kbps
Encoded date : UTC 2011-12-17 17:43:19
Writing application : mkvmerge v4.9.1
Writing library : libebml v1.2.1 + libmatroska v1.1.1

Video
ID : 1
Format : AVC
Format/Info : Advanced Video Codec
Format profile : High@L3.0
Format settings, CABAC : Yes
Format settings, ReFrames : 4 frames
Codec ID : V_MPEG4/ISO/AVC
Duration : 1h 31mn
Bit rate : 936 Kbps
Width : 720 pixels
Height : 400 pixels
Display aspect ratio : 16:9
Frame rate : 24.000 fps
Color space : YUV
Chroma subsampling : 4:2:0
Bit depth : 8 bits
Scan type : Progressive
Bits/(Pixel*Frame) : 0.135
Stream size : 600 MiB (86%)
Writing library : x264 core 116 r2074 2641b9e

Audio
ID : 2
Format : AC-3
Format/Info : Audio Coding 3
Mode extension : CM (complete main)
Codec ID : A_AC3
Duration : 1h 31mn
Bit rate mode : Constant
Bit rate : 128 Kbps
Channel(s) : 6 channels
Channel positions : Front: L C R, Side: L R, LFE
Sampling rate : 48.0 KHz
Bit depth : 16 bits
Compression mode : Lossy
Stream size : 83.9 MiB (12%)